<svg width="22" height="22" viewBox="0 0 22 22" fill="none" xmlns="http://www.w3.org/2000/svg">
<path d="M14.4375 8.25V4.8125C14.4375 4.26549 14.2202 3.74089 13.8334 3.35409C13.4466 2.9673 12.922 2.75 12.375 2.75H6.875C6.32799 2.75 5.80339 2.9673 5.41659 3.35409C5.0298 3.74089 4.8125 4.26549 4.8125 4.8125V17.1875C4.8125 17.7345 5.0298 18.2591 5.41659 18.6459C5.80339 19.0327 6.32799 19.25 6.875 19.25H12.375C12.922 19.25 13.4466 19.0327 13.8334 18.6459C14.2202 18.2591 14.4375 17.7345 14.4375 17.1875V13.75M11 8.25L8.25 11M8.25 11L11 13.75M8.25 11H19.9375" stroke="#8B909A" stroke-width="1.75" stroke-linecap="round" stroke-linejoin="round"/>
<path d="M14.4375 8.25V4.8125C14.4375 4.26549 14.2202 3.74089 13.8334 3.35409C13.4466 2.9673 12.922 2.75 12.375 2.75H6.875C6.32799 2.75 5.80339 2.9673 5.41659 3.35409C5.0298 3.74089 4.8125 4.26549 4.8125 4.8125V17.1875C4.8125 17.7345 5.0298 18.2591 5.41659 18.6459C5.80339 19.0327 6.32799 19.25 6.875 19.25H12.375C12.922 19.25 13.4466 19.0327 13.8334 18.6459C14.2202 18.2591 14.4375 17.7345 14.4375 17.1875V13.75M11 8.25L8.25 11M8.25 11L11 13.75M8.25 11H19.9375" stroke="#8B909A" stroke-width="1.75" stroke-linecap="round" stroke-linejoin="round"/>
</svg>
