<svg width="22" height="22" viewBox="0 0 22 22" fill="none" xmlns="http://www.w3.org/2000/svg">
<path d="M14.6878 8.56894H19.2638L16.3479 5.6512C15.4091 4.71241 14.2397 4.03731 12.9573 3.69375C11.6749 3.35019 10.3246 3.35029 9.04226 3.69404C7.7599 4.03779 6.59063 4.71307 5.652 5.65199C4.71337 6.59091 4.03845 7.76039 3.6951 9.04286M2.73627 18.0069V13.4309M2.73627 13.4309H7.31227M2.73627 13.4309L5.65127 16.3487C6.59004 17.2875 7.75941 17.9626 9.04182 18.3061C10.3242 18.6497 11.6745 18.6496 12.9569 18.3058C14.2392 17.9621 15.4085 17.2868 16.3471 16.3479C17.2858 15.409 17.9607 14.2395 18.304 12.957M19.2638 3.99295V8.56711" stroke="#8B909A" stroke-width="1.75" stroke-linecap="round" stroke-linejoin="round"/>
<path d="M14.6878 8.56894H19.2638L16.3479 5.6512C15.4091 4.71241 14.2397 4.03731 12.9573 3.69375C11.6749 3.35019 10.3246 3.35029 9.04226 3.69404C7.7599 4.03779 6.59063 4.71307 5.652 5.65199C4.71337 6.59091 4.03845 7.76039 3.6951 9.04286M2.73627 18.0069V13.4309M2.73627 13.4309H7.31227M2.73627 13.4309L5.65127 16.3487C6.59004 17.2875 7.75941 17.9626 9.04182 18.3061C10.3242 18.6497 11.6745 18.6496 12.9569 18.3058C14.2392 17.9621 15.4085 17.2868 16.3471 16.3479C17.2858 15.409 17.9607 14.2395 18.304 12.957M19.2638 3.99295V8.56711" stroke="#8B909A" stroke-width="1.75" stroke-linecap="round" stroke-linejoin="round"/>
</svg>
