<svg width="172" height="25" viewBox="0 0 172 25" fill="none" xmlns="http://www.w3.org/2000/svg">
<path fill-rule="evenodd" clip-rule="evenodd" d="M12.5 25C19.4036 25 25 19.4035 25 12.5C25 5.59644 19.4036 0 12.5 0C5.59643 0 0 5.59644 0 12.5C0 19.4035 5.59643 25 12.5 25ZM16.3996 5.82302C16.5894 5.14878 15.9351 4.75008 15.3375 5.17581L6.9957 11.1185C6.34763 11.5802 6.44957 12.5 7.14882 12.5H9.34544V12.483H13.6266L10.1383 13.7138L8.60044 19.177C8.41063 19.8512 9.06488 20.2499 9.66251 19.8242L18.0043 13.8815C18.6524 13.4198 18.5504 12.5 17.8512 12.5H14.5201L16.3996 5.82302Z" fill="#4D5EFF"/>
<path d="M36.62 20V5.54H41.94C42.9933 5.54 43.9367 5.72333 44.77 6.09C45.6033 6.45 46.26 6.98333 46.74 7.69C47.2267 8.39667 47.47 9.26 47.47 10.28C47.47 11.24 47.2567 12.06 46.83 12.74C46.4033 13.42 45.8033 13.94 45.03 14.3C44.2633 14.66 43.36 14.84 42.32 14.84H39.56V20H36.62ZM39.53 12.58H42.24C42.9733 12.58 43.5733 12.3467 44.04 11.88C44.5067 11.4067 44.74 10.8233 44.74 10.13C44.74 9.41 44.4933 8.84 44 8.42C43.5067 7.99333 42.9067 7.78 42.2 7.78H39.53V12.58ZM48.4269 8.14V5.54H59.9969V8.14H55.7269V20H52.7969V8.14H48.4269ZM72.1194 5.34C73.206 5.34 74.1727 5.56 75.0194 6C75.8727 6.43333 76.5594 7.02667 77.0794 7.78C77.606 8.53333 77.916 9.38333 78.0094 10.33H74.9494C74.856 9.83 74.686 9.38667 74.4394 9C74.1927 8.60667 73.8694 8.3 73.4694 8.08C73.0694 7.85333 72.5894 7.74 72.0294 7.74C71.356 7.74 70.776 7.90333 70.2894 8.23C69.8027 8.55667 69.4294 9.08333 69.1694 9.81C68.9094 10.5367 68.7794 11.4967 68.7794 12.69C68.7794 14.49 69.066 15.7933 69.6394 16.6C70.2194 17.4 71.016 17.8 72.0294 17.8C72.5894 17.8 73.0694 17.6733 73.4694 17.42C73.8694 17.16 74.1927 16.82 74.4394 16.4C74.686 15.9733 74.856 15.5067 74.9494 15H78.0094C77.9227 15.6867 77.756 16.3433 77.5094 16.97C77.2627 17.59 76.9127 18.1433 76.4594 18.63C76.006 19.1167 75.4227 19.5 74.7094 19.78C73.996 20.06 73.1327 20.2 72.1194 20.2C70.7727 20.2 69.6094 19.8867 68.6294 19.26C67.6494 18.6333 66.8927 17.7533 66.3594 16.62C65.8327 15.4867 65.5694 14.1633 65.5694 12.65C65.5694 11.13 65.8327 9.82667 66.3594 8.74C66.886 7.64667 67.6394 6.80667 68.6194 6.22C69.5994 5.63333 70.766 5.34 72.1194 5.34ZM82.6539 15.5C82.6472 16.0267 82.7306 16.4867 82.9039 16.88C83.0772 17.2667 83.3272 17.5667 83.6539 17.78C83.9872 17.9867 84.3872 18.09 84.8539 18.09C85.3539 18.09 85.7906 17.9833 86.1639 17.77C86.5439 17.5567 86.8072 17.2067 86.9539 16.72H89.5839C89.4706 17.4533 89.1772 18.08 88.7039 18.6C88.2372 19.12 87.6706 19.5167 87.0039 19.79C86.3372 20.0633 85.6439 20.2 84.9239 20.2C83.9039 20.2 83.0039 19.9867 82.2239 19.56C81.4506 19.1267 80.8472 18.5167 80.4139 17.73C79.9806 16.9433 79.7639 16.0167 79.7639 14.95C79.7639 13.9167 79.9606 12.9867 80.3539 12.16C80.7472 11.3267 81.3172 10.67 82.0639 10.19C82.8172 9.70333 83.7206 9.46 84.7739 9.46C85.8272 9.46 86.7106 9.68333 87.4239 10.13C88.1439 10.57 88.6839 11.1867 89.0439 11.98C89.4106 12.7667 89.5939 13.6767 89.5939 14.71V15.5H82.6539ZM82.6439 13.76H86.8639C86.8639 13.3467 86.7872 12.9667 86.6339 12.62C86.4806 12.2733 86.2472 12 85.9339 11.8C85.6272 11.6 85.2406 11.5 84.7739 11.5C84.3206 11.5 83.9339 11.61 83.6139 11.83C83.3006 12.0433 83.0606 12.3233 82.8939 12.67C82.7272 13.0167 82.6439 13.38 82.6439 13.76ZM91.6211 23.22V9.66H94.5511L94.5611 11.15C94.7144 10.9033 94.9011 10.68 95.1211 10.48C95.3478 10.2733 95.5978 10.0933 95.8711 9.94C96.1444 9.78667 96.4411 9.67 96.7611 9.59C97.0811 9.50333 97.4178 9.46 97.7711 9.46C98.5378 9.46 99.2211 9.65 99.8211 10.03C100.421 10.4033 100.891 10.9833 101.231 11.77C101.578 12.55 101.751 13.5433 101.751 14.75C101.751 16.0033 101.564 17.0333 101.191 17.84C100.824 18.64 100.318 19.2333 99.6711 19.62C99.0244 20.0067 98.2944 20.2 97.4811 20.2C97.1478 20.2 96.8344 20.1533 96.5411 20.06C96.2478 19.9733 95.9744 19.85 95.7211 19.69C95.4744 19.53 95.2511 19.3467 95.0511 19.14C94.8578 18.9267 94.6878 18.6967 94.5411 18.45V23.22H91.6211ZM96.7811 18.06C97.4144 18.06 97.9444 17.7967 98.3711 17.27C98.8044 16.7433 99.0211 15.91 99.0211 14.77C99.0211 13.77 98.8144 12.99 98.4011 12.43C97.9944 11.8633 97.4544 11.58 96.7811 11.58C96.0278 11.58 95.4644 11.8867 95.0911 12.5C94.7244 13.1067 94.5411 13.8633 94.5411 14.77C94.5411 15.35 94.6211 15.89 94.7811 16.39C94.9478 16.89 95.1944 17.2933 95.5211 17.6C95.8544 17.9067 96.2744 18.06 96.7811 18.06ZM106.633 20.2C105.973 20.2 105.379 20.0767 104.853 19.83C104.326 19.5833 103.909 19.2267 103.603 18.76C103.296 18.2867 103.143 17.7133 103.143 17.04C103.143 15.9067 103.566 15.0467 104.413 14.46C105.259 13.8667 106.596 13.56 108.423 13.54L109.713 13.52V12.9C109.713 12.4267 109.573 12.0633 109.293 11.81C109.019 11.55 108.593 11.4233 108.013 11.43C107.586 11.4367 107.179 11.5367 106.793 11.73C106.413 11.9233 106.153 12.26 106.013 12.74H103.583C103.623 11.9933 103.839 11.38 104.233 10.9C104.626 10.4133 105.159 10.0533 105.833 9.82C106.513 9.58 107.283 9.46 108.143 9.46C109.203 9.46 110.053 9.59333 110.693 9.86C111.333 10.12 111.796 10.4967 112.083 10.99C112.369 11.4767 112.513 12.0567 112.513 12.73V20H110.073L109.833 18.22C109.479 18.9667 109.036 19.4833 108.503 19.77C107.976 20.0567 107.353 20.2 106.633 20.2ZM107.613 18.28C107.879 18.28 108.136 18.2333 108.383 18.14C108.636 18.04 108.859 17.91 109.053 17.75C109.253 17.5833 109.413 17.3967 109.533 17.19C109.653 16.9833 109.713 16.77 109.713 16.55V15.02L108.663 15.04C108.176 15.0467 107.723 15.1067 107.303 15.22C106.883 15.3267 106.543 15.5033 106.283 15.75C106.029 15.9967 105.903 16.33 105.903 16.75C105.903 17.23 106.069 17.6067 106.403 17.88C106.736 18.1467 107.139 18.28 107.613 18.28ZM120.948 11.69H118.648L118.668 17.2C118.668 17.4533 118.698 17.6433 118.758 17.77C118.825 17.89 118.925 17.97 119.058 18.01C119.198 18.0433 119.375 18.06 119.588 18.06H120.978V19.86C120.845 19.92 120.635 19.9767 120.348 20.03C120.068 20.0833 119.675 20.11 119.168 20.11C118.262 20.11 117.558 19.9933 117.058 19.76C116.565 19.5267 116.222 19.2 116.028 18.78C115.835 18.36 115.738 17.8733 115.738 17.32V11.69H114.058V9.66H115.838L116.568 6.54H118.648V9.65H120.948V11.69ZM139.894 20H136.714L132.884 13.27L130.744 15.85V20H127.714V5.54H130.744V12.16L136.014 5.54H139.364L134.974 11.14L139.894 20ZM144.62 9.66V20H141.83V9.66H144.62ZM144.65 5.55V8.18H141.81V5.55H144.65ZM150.624 20.18C149.864 20.18 149.261 20.09 148.814 19.91C148.368 19.73 148.038 19.4933 147.824 19.2C147.611 18.9 147.474 18.57 147.414 18.21C147.354 17.8433 147.324 17.4733 147.324 17.1V5.14H150.184V16.74C150.184 17.12 150.264 17.43 150.424 17.67C150.591 17.9033 150.901 18.0467 151.354 18.1L151.844 18.13V19.93C151.644 19.9967 151.441 20.0533 151.234 20.1C151.028 20.1533 150.824 20.18 150.624 20.18ZM156.73 20.2C156.07 20.2 155.477 20.0767 154.95 19.83C154.424 19.5833 154.007 19.2267 153.7 18.76C153.394 18.2867 153.24 17.7133 153.24 17.04C153.24 15.9067 153.664 15.0467 154.51 14.46C155.357 13.8667 156.694 13.56 158.52 13.54L159.81 13.52V12.9C159.81 12.4267 159.67 12.0633 159.39 11.81C159.117 11.55 158.69 11.4233 158.11 11.43C157.684 11.4367 157.277 11.5367 156.89 11.73C156.51 11.9233 156.25 12.26 156.11 12.74H153.68C153.72 11.9933 153.937 11.38 154.33 10.9C154.724 10.4133 155.257 10.0533 155.93 9.82C156.61 9.58 157.38 9.46 158.24 9.46C159.3 9.46 160.15 9.59333 160.79 9.86C161.43 10.12 161.894 10.4967 162.18 10.99C162.467 11.4767 162.61 12.0567 162.61 12.73V20H160.17L159.93 18.22C159.577 18.9667 159.134 19.4833 158.6 19.77C158.074 20.0567 157.45 20.2 156.73 20.2ZM157.71 18.28C157.977 18.28 158.234 18.2333 158.48 18.14C158.734 18.04 158.957 17.91 159.15 17.75C159.35 17.5833 159.51 17.3967 159.63 17.19C159.75 16.9833 159.81 16.77 159.81 16.55V15.02L158.76 15.04C158.274 15.0467 157.82 15.1067 157.4 15.22C156.98 15.3267 156.64 15.5033 156.38 15.75C156.127 15.9967 156 16.33 156 16.75C156 17.23 156.167 17.6067 156.5 17.88C156.834 18.1467 157.237 18.28 157.71 18.28ZM171.046 11.69H168.746L168.766 17.2C168.766 17.4533 168.796 17.6433 168.856 17.77C168.923 17.89 169.023 17.97 169.156 18.01C169.296 18.0433 169.473 18.06 169.686 18.06H171.076V19.86C170.943 19.92 170.733 19.9767 170.446 20.03C170.166 20.0833 169.773 20.11 169.266 20.11C168.359 20.11 167.656 19.9933 167.156 19.76C166.663 19.5267 166.319 19.2 166.126 18.78C165.933 18.36 165.836 17.8733 165.836 17.32V11.69H164.156V9.66H165.936L166.666 6.54H168.746V9.65H171.046V11.69Z" fill="#23272E"/>
</svg>
