<svg width="172" height="25" viewBox="0 0 172 25" fill="none" xmlns="http://www.w3.org/2000/svg">
<path d="M9.84544 12.983H10.7068L9.97189 13.2423L9.72725 13.3286L9.65696 13.5783L8.11915 19.0415C7.97221 19.5635 8.14379 20.0767 8.576 20.34C8.99288 20.5941 9.52314 20.5374 9.95262 20.2314L18.2944 14.2888L18.0043 13.8815L18.2944 14.2888C18.7556 13.9602 18.9832 13.4429 18.9299 12.9625C18.9031 12.7205 18.8019 12.4761 18.6067 12.2895C18.4069 12.0985 18.1417 12 17.8512 12H15.1802L16.8809 5.95851C17.0278 5.43651 16.8562 4.92332 16.424 4.65995C16.0071 4.40593 15.4769 4.46261 15.0474 4.76859L6.70559 10.7112L6.9957 11.1185L6.70558 10.7112C6.24444 11.0398 6.01682 11.557 6.07006 12.0374C6.09689 12.2795 6.19805 12.5239 6.39328 12.7105C6.59306 12.9014 6.85829 13 7.14882 13H9.34544H9.84544V12.983ZM24.5 12.5C24.5 19.1274 19.1274 24.5 12.5 24.5C5.87257 24.5 0.5 19.1274 0.5 12.5C0.5 5.87258 5.87257 0.5 12.5 0.5C19.1274 0.5 24.5 5.87258 24.5 12.5Z" fill="#0F60FF" stroke="#FAFAFA"/>
<path d="M36.62 19.5V5.04H41.94C42.9933 5.04 43.9367 5.22333 44.77 5.59C45.6033 5.95 46.26 6.48333 46.74 7.19C47.2267 7.89667 47.47 8.76 47.47 9.78C47.47 10.74 47.2567 11.56 46.83 12.24C46.4033 12.92 45.8033 13.44 45.03 13.8C44.2633 14.16 43.36 14.34 42.32 14.34H39.56V19.5H36.62ZM39.53 12.08H42.24C42.9733 12.08 43.5733 11.8467 44.04 11.38C44.5067 10.9067 44.74 10.3233 44.74 9.63C44.74 8.91 44.4933 8.34 44 7.92C43.5067 7.49333 42.9067 7.28 42.2 7.28H39.53V12.08ZM48.4269 7.64V5.04H59.9969V7.64H55.7269V19.5H52.7969V7.64H48.4269ZM72.1194 4.84C73.206 4.84 74.1727 5.06 75.0194 5.5C75.8727 5.93333 76.5594 6.52667 77.0794 7.28C77.606 8.03333 77.916 8.88333 78.0094 9.83H74.9494C74.856 9.33 74.686 8.88667 74.4394 8.5C74.1927 8.10667 73.8694 7.8 73.4694 7.58C73.0694 7.35333 72.5894 7.24 72.0294 7.24C71.356 7.24 70.776 7.40333 70.2894 7.73C69.8027 8.05667 69.4294 8.58333 69.1694 9.31C68.9094 10.0367 68.7794 10.9967 68.7794 12.19C68.7794 13.99 69.066 15.2933 69.6394 16.1C70.2194 16.9 71.016 17.3 72.0294 17.3C72.5894 17.3 73.0694 17.1733 73.4694 16.92C73.8694 16.66 74.1927 16.32 74.4394 15.9C74.686 15.4733 74.856 15.0067 74.9494 14.5H78.0094C77.9227 15.1867 77.756 15.8433 77.5094 16.47C77.2627 17.09 76.9127 17.6433 76.4594 18.13C76.006 18.6167 75.4227 19 74.7094 19.28C73.996 19.56 73.1327 19.7 72.1194 19.7C70.7727 19.7 69.6094 19.3867 68.6294 18.76C67.6494 18.1333 66.8927 17.2533 66.3594 16.12C65.8327 14.9867 65.5694 13.6633 65.5694 12.15C65.5694 10.63 65.8327 9.32667 66.3594 8.24C66.886 7.14667 67.6394 6.30667 68.6194 5.72C69.5994 5.13333 70.766 4.84 72.1194 4.84ZM82.6539 15C82.6472 15.5267 82.7306 15.9867 82.9039 16.38C83.0772 16.7667 83.3272 17.0667 83.6539 17.28C83.9872 17.4867 84.3872 17.59 84.8539 17.59C85.3539 17.59 85.7906 17.4833 86.1639 17.27C86.5439 17.0567 86.8072 16.7067 86.9539 16.22H89.5839C89.4706 16.9533 89.1772 17.58 88.7039 18.1C88.2372 18.62 87.6706 19.0167 87.0039 19.29C86.3372 19.5633 85.6439 19.7 84.9239 19.7C83.9039 19.7 83.0039 19.4867 82.2239 19.06C81.4506 18.6267 80.8472 18.0167 80.4139 17.23C79.9806 16.4433 79.7639 15.5167 79.7639 14.45C79.7639 13.4167 79.9606 12.4867 80.3539 11.66C80.7472 10.8267 81.3172 10.17 82.0639 9.69C82.8172 9.20333 83.7206 8.96 84.7739 8.96C85.8272 8.96 86.7106 9.18333 87.4239 9.63C88.1439 10.07 88.6839 10.6867 89.0439 11.48C89.4106 12.2667 89.5939 13.1767 89.5939 14.21V15H82.6539ZM82.6439 13.26H86.8639C86.8639 12.8467 86.7872 12.4667 86.6339 12.12C86.4806 11.7733 86.2472 11.5 85.9339 11.3C85.6272 11.1 85.2406 11 84.7739 11C84.3206 11 83.9339 11.11 83.6139 11.33C83.3006 11.5433 83.0606 11.8233 82.8939 12.17C82.7272 12.5167 82.6439 12.88 82.6439 13.26ZM91.6211 22.72V9.16H94.5511L94.5611 10.65C94.7144 10.4033 94.9011 10.18 95.1211 9.98C95.3478 9.77333 95.5978 9.59333 95.8711 9.44C96.1444 9.28667 96.4411 9.17 96.7611 9.09C97.0811 9.00333 97.4178 8.96 97.7711 8.96C98.5378 8.96 99.2211 9.15 99.8211 9.53C100.421 9.90333 100.891 10.4833 101.231 11.27C101.578 12.05 101.751 13.0433 101.751 14.25C101.751 15.5033 101.564 16.5333 101.191 17.34C100.824 18.14 100.318 18.7333 99.6711 19.12C99.0244 19.5067 98.2944 19.7 97.4811 19.7C97.1478 19.7 96.8344 19.6533 96.5411 19.56C96.2478 19.4733 95.9744 19.35 95.7211 19.19C95.4744 19.03 95.2511 18.8467 95.0511 18.64C94.8578 18.4267 94.6878 18.1967 94.5411 17.95V22.72H91.6211ZM96.7811 17.56C97.4144 17.56 97.9444 17.2967 98.3711 16.77C98.8044 16.2433 99.0211 15.41 99.0211 14.27C99.0211 13.27 98.8144 12.49 98.4011 11.93C97.9944 11.3633 97.4544 11.08 96.7811 11.08C96.0278 11.08 95.4644 11.3867 95.0911 12C94.7244 12.6067 94.5411 13.3633 94.5411 14.27C94.5411 14.85 94.6211 15.39 94.7811 15.89C94.9478 16.39 95.1944 16.7933 95.5211 17.1C95.8544 17.4067 96.2744 17.56 96.7811 17.56ZM106.633 19.7C105.973 19.7 105.379 19.5767 104.853 19.33C104.326 19.0833 103.909 18.7267 103.603 18.26C103.296 17.7867 103.143 17.2133 103.143 16.54C103.143 15.4067 103.566 14.5467 104.413 13.96C105.259 13.3667 106.596 13.06 108.423 13.04L109.713 13.02V12.4C109.713 11.9267 109.573 11.5633 109.293 11.31C109.019 11.05 108.593 10.9233 108.013 10.93C107.586 10.9367 107.179 11.0367 106.793 11.23C106.413 11.4233 106.153 11.76 106.013 12.24H103.583C103.623 11.4933 103.839 10.88 104.233 10.4C104.626 9.91333 105.159 9.55333 105.833 9.32C106.513 9.08 107.283 8.96 108.143 8.96C109.203 8.96 110.053 9.09333 110.693 9.36C111.333 9.62 111.796 9.99667 112.083 10.49C112.369 10.9767 112.513 11.5567 112.513 12.23V19.5H110.073L109.833 17.72C109.479 18.4667 109.036 18.9833 108.503 19.27C107.976 19.5567 107.353 19.7 106.633 19.7ZM107.613 17.78C107.879 17.78 108.136 17.7333 108.383 17.64C108.636 17.54 108.859 17.41 109.053 17.25C109.253 17.0833 109.413 16.8967 109.533 16.69C109.653 16.4833 109.713 16.27 109.713 16.05V14.52L108.663 14.54C108.176 14.5467 107.723 14.6067 107.303 14.72C106.883 14.8267 106.543 15.0033 106.283 15.25C106.029 15.4967 105.903 15.83 105.903 16.25C105.903 16.73 106.069 17.1067 106.403 17.38C106.736 17.6467 107.139 17.78 107.613 17.78ZM120.948 11.19H118.648L118.668 16.7C118.668 16.9533 118.698 17.1433 118.758 17.27C118.825 17.39 118.925 17.47 119.058 17.51C119.198 17.5433 119.375 17.56 119.588 17.56H120.978V19.36C120.845 19.42 120.635 19.4767 120.348 19.53C120.068 19.5833 119.675 19.61 119.168 19.61C118.262 19.61 117.558 19.4933 117.058 19.26C116.565 19.0267 116.222 18.7 116.028 18.28C115.835 17.86 115.738 17.3733 115.738 16.82V11.19H114.058V9.16H115.838L116.568 6.04H118.648V9.15H120.948V11.19ZM139.894 19.5H136.714L132.884 12.77L130.744 15.35V19.5H127.714V5.04H130.744V11.66L136.014 5.04H139.364L134.974 10.64L139.894 19.5ZM144.62 9.16V19.5H141.83V9.16H144.62ZM144.65 5.05V7.68H141.81V5.05H144.65ZM150.624 19.68C149.864 19.68 149.261 19.59 148.814 19.41C148.368 19.23 148.038 18.9933 147.824 18.7C147.611 18.4 147.474 18.07 147.414 17.71C147.354 17.3433 147.324 16.9733 147.324 16.6V4.64H150.184V16.24C150.184 16.62 150.264 16.93 150.424 17.17C150.591 17.4033 150.901 17.5467 151.354 17.6L151.844 17.63V19.43C151.644 19.4967 151.441 19.5533 151.234 19.6C151.028 19.6533 150.824 19.68 150.624 19.68ZM156.73 19.7C156.07 19.7 155.477 19.5767 154.95 19.33C154.424 19.0833 154.007 18.7267 153.7 18.26C153.394 17.7867 153.24 17.2133 153.24 16.54C153.24 15.4067 153.664 14.5467 154.51 13.96C155.357 13.3667 156.694 13.06 158.52 13.04L159.81 13.02V12.4C159.81 11.9267 159.67 11.5633 159.39 11.31C159.117 11.05 158.69 10.9233 158.11 10.93C157.684 10.9367 157.277 11.0367 156.89 11.23C156.51 11.4233 156.25 11.76 156.11 12.24H153.68C153.72 11.4933 153.937 10.88 154.33 10.4C154.724 9.91333 155.257 9.55333 155.93 9.32C156.61 9.08 157.38 8.96 158.24 8.96C159.3 8.96 160.15 9.09333 160.79 9.36C161.43 9.62 161.894 9.99667 162.18 10.49C162.467 10.9767 162.61 11.5567 162.61 12.23V19.5H160.17L159.93 17.72C159.577 18.4667 159.134 18.9833 158.6 19.27C158.074 19.5567 157.45 19.7 156.73 19.7ZM157.71 17.78C157.977 17.78 158.234 17.7333 158.48 17.64C158.734 17.54 158.957 17.41 159.15 17.25C159.35 17.0833 159.51 16.8967 159.63 16.69C159.75 16.4833 159.81 16.27 159.81 16.05V14.52L158.76 14.54C158.274 14.5467 157.82 14.6067 157.4 14.72C156.98 14.8267 156.64 15.0033 156.38 15.25C156.127 15.4967 156 15.83 156 16.25C156 16.73 156.167 17.1067 156.5 17.38C156.834 17.6467 157.237 17.78 157.71 17.78ZM171.046 11.19H168.746L168.766 16.7C168.766 16.9533 168.796 17.1433 168.856 17.27C168.923 17.39 169.023 17.47 169.156 17.51C169.296 17.5433 169.473 17.56 169.686 17.56H171.076V19.36C170.943 19.42 170.733 19.4767 170.446 19.53C170.166 19.5833 169.773 19.61 169.266 19.61C168.359 19.61 167.656 19.4933 167.156 19.26C166.663 19.0267 166.319 18.7 166.126 18.28C165.933 17.86 165.836 17.3733 165.836 16.82V11.19H164.156V9.16H165.936L166.666 6.04H168.746V9.15H171.046V11.19Z" fill="white"/>
</svg>
