<svg width="493" height="486" viewBox="0 0 493 486" fill="none" xmlns="http://www.w3.org/2000/svg">
<path d="M271.839 69.0837C271.979 69.6987 272.07 70.3238 272.111 70.9531L321.076 99.2004L332.977 92.349L345.665 108.959L325.774 123.136C324.167 124.281 322.232 124.874 320.26 124.826C318.287 124.778 316.383 124.091 314.834 122.869L264.343 83.0367C262.065 83.8802 259.583 84.0099 257.229 83.4087C254.875 82.8075 252.76 81.5038 251.165 79.6711C249.569 77.8383 248.57 75.5633 248.299 73.1487C248.029 70.7341 248.5 68.2943 249.649 66.1538C250.799 64.0134 252.574 62.2737 254.736 61.1662C256.899 60.0587 259.347 59.6359 261.756 59.9539C264.165 60.272 266.42 61.3159 268.221 62.9467C270.022 64.5776 271.284 66.7181 271.839 69.0837Z" fill="#FFB6B6"/>
<path d="M321.755 96.0817C321.911 95.3612 322.22 94.6826 322.661 94.0924C323.103 93.5021 323.666 93.0141 324.314 92.6615L346.919 80.3446C349.93 78.0725 353.718 77.087 357.454 77.6042C361.19 78.1214 364.569 80.0991 366.849 83.1036C369.128 86.1081 370.124 89.8941 369.616 93.6313C369.109 97.3686 367.14 100.752 364.141 103.04L346.023 121.446C345.506 121.971 344.882 122.378 344.193 122.641C343.504 122.903 342.767 123.014 342.032 122.965C341.296 122.917 340.58 122.711 339.931 122.36C339.282 122.01 338.717 121.524 338.273 120.936L322.674 100.253C322.23 99.6651 321.918 98.9878 321.759 98.2678C321.601 97.5479 321.599 96.8022 321.755 96.0817Z" fill="#3F3D56"/>
<path d="M362.142 24.4757C365.394 14.11 372.791 4.60293 383.02 1.09876C393.249 -2.4054 408.228 2.93258 415.918 10.5969C429.985 24.6165 433.418 72.779 423.754 87.9989C421.831 87.8972 415.198 87.8219 413.252 87.749L410.5 78.5756V87.6586C395.314 87.1893 379.503 87.4831 363.685 87.787C362.267 77.0112 358.889 34.8414 362.142 24.4757Z" fill="#2F2E41"/>
<path d="M357.789 459.573H343.938L337.349 406.146L357.792 406.147L357.789 459.573Z" fill="#FFB6B6"/>
<path d="M479.043 450.96L465.64 454.453L445.787 404.416L465.569 399.261L479.043 450.96Z" fill="#FFB6B6"/>
<path d="M383.291 57.9996C395.407 57.9996 405.229 48.1775 405.229 36.0613C405.229 23.9451 395.407 14.1229 383.291 14.1229C371.174 14.1229 361.352 23.9451 361.352 36.0613C361.352 48.1775 371.174 57.9996 383.291 57.9996Z" fill="#FFB7B7"/>
<path d="M368.216 7.49359C372.431 4.92378 377.26 3.53366 382.196 3.46858C387.133 3.4035 391.996 4.66585 396.278 7.12364C400.559 9.58144 404.102 13.1444 406.535 17.44C408.969 21.7356 410.203 26.606 410.11 31.542C398.151 34.5985 385.407 35.8769 371.903 32.2782L368.816 24.7229L366.996 32.2837C362.864 35.19 358.876 35.1848 355.033 32.268C354.87 27.3459 356.001 22.4673 358.315 18.1197C360.628 13.7722 364.043 10.108 368.216 7.49359Z" fill="#2F2E41"/>
<path d="M363.986 485.874H354.157L352.403 476.594L347.91 485.874H321.841C320.592 485.874 319.375 485.475 318.369 484.734C317.362 483.994 316.619 482.951 316.247 481.758C315.875 480.565 315.894 479.284 316.302 478.103C316.709 476.922 317.483 475.902 318.512 475.192L339.329 460.815V451.433L361.225 452.74L363.986 485.874Z" fill="#2F2E41"/>
<path d="M492.888 474.531L483.377 477.01L479.339 468.473L477.331 478.586L452.106 485.161C450.897 485.476 449.619 485.397 448.458 484.934C447.297 484.471 446.315 483.65 445.654 482.589C444.993 481.529 444.689 480.285 444.785 479.039C444.882 477.793 445.374 476.611 446.19 475.664L462.707 456.501L460.341 447.423L481.859 443.165L492.888 474.531Z" fill="#2F2E41"/>
<path d="M477.344 417.361L436.743 333.914L423.997 232.348C432.785 216.027 416.465 182.819 416.465 182.819V168.876L353.244 180.803C340.314 216.071 334.043 253.433 334.752 290.99L337.299 426H336.5C335.174 426 333.902 426.527 332.964 427.465C332.027 428.402 331.5 429.674 331.5 431C331.5 432.326 332.027 433.598 332.964 434.536C333.902 435.473 335.174 436 336.5 436H361.5C362.826 436 364.098 435.473 365.035 434.536C365.973 433.598 366.5 432.326 366.5 431C366.5 429.674 365.973 428.402 365.035 427.465C364.098 426.527 362.826 426 361.5 426H360.855L378.802 254.243L399.67 339.001L450.1 417.04C448.814 417.141 447.616 417.736 446.759 418.7C445.902 419.665 445.452 420.924 445.504 422.213C445.556 423.502 446.105 424.721 447.037 425.614C447.968 426.506 449.21 427.003 450.5 427H475.5C476.663 427.001 477.789 426.597 478.686 425.856C479.582 425.116 480.193 424.086 480.411 422.944C480.629 421.802 480.443 420.619 479.883 419.6C479.323 418.581 478.425 417.789 477.344 417.361Z" fill="#2F2E41"/>
<path d="M430.18 191.367C429.973 190.551 429.512 189.822 428.864 189.284C428.217 188.746 427.415 188.427 426.575 188.372C425.742 178.845 420.236 117.743 420.026 115.951L420.018 115.875L418.424 81.8172C418.366 80.5803 417.855 79.4081 416.987 78.5244C416.12 77.6408 414.957 77.1076 413.721 77.0269L405.301 76.4764C405.185 76.4725 405.076 76.4239 404.995 76.3409C404.915 76.2578 404.87 76.1467 404.87 76.0311C404.87 75.1012 404.687 74.1804 404.331 73.3212C403.975 72.462 403.454 71.6814 402.796 71.0238C402.138 70.3663 401.358 69.8446 400.499 69.4888C399.639 69.1329 398.719 68.9497 397.789 68.9497H372.858C371.243 68.9504 369.684 69.5404 368.473 70.609C367.262 71.6776 366.483 73.1513 366.282 74.7535C366.271 74.8639 366.219 74.9659 366.136 75.0394C366.052 75.1128 365.945 75.1522 365.834 75.1497L365.831 75.1496C362.998 75.0912 360.238 76.0504 358.052 77.8529C355.866 79.6554 354.398 82.1819 353.915 84.9739C350.507 104.805 343.676 149.814 347.054 174.836C348.229 183.547 347.695 196.648 347.25 203.936C347.206 204.64 347.301 205.346 347.531 206.014C347.76 206.681 348.118 207.297 348.586 207.826C347.592 208.112 346.748 208.774 346.232 209.671C345.715 210.567 345.568 211.63 345.82 212.633C346.079 213.662 346.736 214.545 347.647 215.089C348.558 215.633 349.647 215.793 350.676 215.534L427.28 196.223C428.308 195.964 429.192 195.307 429.736 194.396C430.28 193.485 430.44 192.396 430.18 191.367Z" fill="#3F3D56"/>
<path d="M354.803 75.4895C354.792 73.8039 354.185 72.1767 353.089 70.8962C351.992 69.6158 350.478 68.7649 348.815 68.4945L246.458 51.6862C245.476 51.5237 244.471 51.5684 243.508 51.8173L219.52 58.0199L205.757 61.5829L180.356 68.1489C178.823 68.5471 177.465 69.443 176.496 70.6959C175.527 71.9489 175 73.4882 175 75.0724V158.965C175.008 160.6 175.573 162.184 176.602 163.454C177.631 164.725 179.063 165.607 180.66 165.954L284.918 188.137C285.408 188.242 285.907 188.294 286.408 188.291C287.137 188.293 287.863 188.182 288.559 187.964L350.501 168.403C351.963 167.947 353.238 167.031 354.139 165.793C355.039 164.554 355.517 163.058 355.5 161.527L354.803 75.4895Z" fill="white"/>
<path d="M245.299 57.8469C245.224 57.8468 245.149 57.8564 245.077 57.8755L181.925 74.2072C181.734 74.2567 181.564 74.3685 181.443 74.5249C181.322 74.6813 181.256 74.8735 181.256 75.0712V158.962C181.257 159.167 181.327 159.365 181.456 159.523C181.584 159.682 181.763 159.792 181.963 159.836L286.221 182.018C286.372 182.05 286.528 182.042 286.676 181.996L348.619 162.435C348.801 162.379 348.961 162.264 349.073 162.109C349.185 161.955 349.245 161.768 349.242 161.577L348.548 75.5396C348.546 75.3291 348.47 75.126 348.333 74.9661C348.197 74.8062 348.007 74.7 347.8 74.6663L245.443 57.8586C245.395 57.8509 245.347 57.847 245.299 57.8469Z" fill="#3F80FE"/>
<path d="M354.803 75.4895C354.792 73.8039 354.185 72.1767 353.089 70.8962C351.992 69.6158 350.478 68.7649 348.815 68.4945L246.458 51.6862C245.476 51.5237 244.471 51.5684 243.508 51.8173L219.52 58.0199L205.757 61.5829L180.356 68.1489C178.823 68.5471 177.465 69.443 176.496 70.6959C175.527 71.9489 175 73.4882 175 75.0724V158.965C175.008 160.6 175.573 162.184 176.602 163.454C177.631 164.725 179.063 165.607 180.66 165.954L284.918 188.137C285.408 188.242 285.907 188.294 286.408 188.291C287.137 188.293 287.863 188.182 288.559 187.964L350.501 168.403C351.963 167.947 353.238 167.031 354.139 165.793C355.039 164.554 355.517 163.058 355.5 161.527L354.803 75.4895ZM349.965 166.699L288.022 186.26C287.139 186.535 286.199 186.58 285.294 186.391L181.03 164.208C179.832 163.947 178.759 163.285 177.987 162.332C177.216 161.379 176.793 160.191 176.787 158.965V75.0725C176.788 73.9745 177.126 72.9031 177.754 72.0028C178.383 71.1026 179.272 70.4167 180.303 70.0377C180.466 69.9763 180.634 69.9245 180.803 69.8828L207.675 62.9355L223.566 58.8243L243.955 53.5512C244.392 53.4345 244.843 53.3764 245.296 53.3784C245.587 53.3783 245.878 53.4022 246.166 53.4499L348.523 70.2582C349.346 70.3933 350.127 70.7183 350.804 71.2075C351.48 71.6966 352.033 72.3365 352.419 73.0765C352.806 73.8266 353.01 74.6575 353.015 75.5014L353.712 161.539C353.725 162.687 353.368 163.81 352.693 164.739C352.017 165.668 351.061 166.356 349.965 166.699Z" fill="#3F3D56"/>
<path d="M352.419 73.0765C352.35 73.1221 352.273 73.1563 352.193 73.1777L322.086 81.3167L312.713 83.849L286.056 91.0525C285.98 91.0712 285.902 91.0812 285.824 91.0823C285.77 91.0813 285.716 91.0773 285.663 91.0704L178.176 71.4736L177.818 71.4081C177.585 71.3646 177.379 71.2304 177.245 71.0352C177.11 70.8399 177.059 70.5993 177.101 70.3661C177.144 70.1329 177.277 69.9261 177.472 69.7908C177.666 69.6556 177.907 69.603 178.14 69.6445L180.303 70.0377L285.788 89.271L308.763 83.0625L321.615 79.5888L351.257 71.5749L351.728 71.4498C351.932 71.3962 352.148 71.4157 352.338 71.505C352.529 71.5943 352.682 71.7477 352.771 71.9384C352.794 71.9839 352.812 72.0319 352.824 72.0814C352.874 72.2687 352.861 72.467 352.788 72.6464C352.715 72.8258 352.585 72.9767 352.419 73.0765Z" fill="#3F3D56"/>
<path d="M286.718 188.5C286.482 188.5 286.256 188.407 286.088 188.241C285.921 188.075 285.826 187.85 285.824 187.614L284.93 90.1967C284.928 89.9597 285.02 89.7315 285.186 89.5624C285.352 89.3933 285.579 89.297 285.816 89.2948H285.824C286.059 89.2948 286.285 89.3878 286.453 89.5537C286.62 89.7195 286.715 89.9448 286.718 90.1804L287.611 187.598C287.613 187.835 287.521 188.063 287.355 188.232C287.189 188.402 286.963 188.498 286.726 188.5H286.718Z" fill="#3F3D56"/>
<path d="M322.086 176.649L312.713 179.181L308.763 83.0624L207.967 63.0069C207.868 62.9894 207.771 62.9656 207.675 62.9354C206.901 62.7149 206.224 62.2381 205.756 61.5829L219.52 58.0199L223.566 58.8242L319.208 77.849C319.711 77.9483 320.186 78.1552 320.602 78.4555C321.017 78.7558 321.363 79.1424 321.615 79.5888C321.913 80.1071 322.08 176.029 322.086 176.649Z" fill="#3F3D56"/>
<path d="M317.887 121.846C318.366 122.256 318.813 122.703 319.222 123.183L375.368 116.626L380.828 104.026L400.922 109.781L393.423 133.027C392.817 134.905 391.618 136.536 390.007 137.674C388.395 138.813 386.458 139.398 384.485 139.342L320.2 137.515C318.875 139.552 316.962 141.137 314.714 142.059C312.466 142.982 309.991 143.198 307.617 142.68C305.243 142.161 303.084 140.932 301.426 139.156C299.767 137.38 298.689 135.142 298.334 132.738C297.979 130.334 298.365 127.88 299.439 125.7C300.513 123.521 302.226 121.72 304.348 120.538C306.471 119.355 308.903 118.847 311.322 119.081C313.74 119.315 316.03 120.279 317.887 121.846Z" fill="#FFB6B6"/>
<path d="M374.052 113.718C373.747 113.047 373.589 112.318 373.591 111.581C373.593 110.844 373.754 110.116 374.063 109.447L384.851 86.0725C385.911 82.4531 388.363 79.4017 391.669 77.5872C394.975 75.7728 398.866 75.3436 402.488 76.3936C406.11 77.4436 409.168 79.8872 410.992 83.1885C412.815 86.4898 413.255 90.3795 412.214 94.0045L408.662 119.586C408.56 120.316 408.302 121.016 407.906 121.637C407.51 122.259 406.985 122.788 406.365 123.188C405.746 123.588 405.049 123.85 404.319 123.956C403.59 124.062 402.846 124.01 402.139 123.802L377.279 116.517C376.571 116.31 375.917 115.953 375.36 115.47C374.803 114.987 374.357 114.389 374.052 113.718Z" fill="#3F3D56"/>
<path d="M64.2306 232.997C59.293 206.57 67.0668 176.506 88.6734 160.51C87.4488 189.72 96.5956 218.421 114.495 241.536C121.431 250.425 130.07 259.59 129.802 270.862C129.635 277.875 125.842 284.409 120.843 289.331C115.845 294.254 109.687 297.803 103.603 301.296L102.656 302.769C84.8219 282.653 69.1683 259.423 64.2306 232.997Z" fill="#F0F0F0"/>
<path d="M89.067 160.914C79.9894 181.23 77.5439 203.89 82.078 225.675C82.9708 230.383 84.6 234.92 86.9056 239.12C89.2838 243.138 92.6947 246.447 96.784 248.701C100.555 250.88 104.664 252.672 107.839 255.729C109.441 257.318 110.689 259.228 111.502 261.334C112.314 263.439 112.672 265.692 112.552 267.946C112.4 273.568 110.237 278.801 107.944 283.844C105.397 289.444 102.664 295.221 102.829 301.516C102.849 302.279 101.664 302.266 101.644 301.504C101.357 290.55 109.276 281.753 111.041 271.243C111.864 266.338 111.214 261.156 107.766 257.354C104.751 254.03 100.515 252.178 96.6785 250.005C92.6571 247.865 89.221 244.772 86.6705 240.997C84.1585 236.928 82.3572 232.461 81.3438 227.788C78.8944 217.303 78.1088 206.499 79.0157 195.77C79.9828 183.52 83.0384 171.525 88.0503 160.305C88.3607 159.611 89.3755 160.224 89.067 160.914Z" fill="#3F80FE"/>
<path d="M80.2051 218.747C76.4468 219.011 72.7168 217.931 69.6813 215.699C66.6458 213.468 64.5024 210.23 63.6339 206.563C63.4607 205.821 64.6062 205.517 64.7796 206.26C65.5821 209.676 67.579 212.692 70.4099 214.764C73.2408 216.837 76.7193 217.829 80.2175 217.562C80.9778 217.505 80.9611 218.69 80.2051 218.747Z" fill="#3F80FE"/>
<path d="M94.7267 247.848C99.8287 242.079 102.569 234.598 102.4 226.898C102.383 226.135 103.568 226.149 103.585 226.911C103.745 234.924 100.878 242.703 95.5557 248.695C95.048 249.266 94.2217 248.416 94.7267 247.848Z" fill="#3F80FE"/>
<path d="M177.032 182.369C176.73 182.738 176.428 183.107 176.129 183.486C172.093 188.47 168.469 193.773 165.292 199.344C165.039 199.771 164.79 200.207 164.55 200.64C157.039 214.143 152.101 228.923 149.985 244.229C149.149 250.32 148.777 256.466 148.874 262.614C149.007 271.104 149.827 280.299 147.225 288.107C146.963 288.925 146.65 289.726 146.288 290.505L104.527 303.81C104.417 303.793 104.309 303.785 104.199 303.768L102.556 304.376C102.528 304.059 102.507 303.73 102.48 303.413C102.464 303.229 102.456 303.043 102.44 302.859C102.432 302.736 102.424 302.612 102.41 302.501C102.407 302.46 102.405 302.419 102.405 302.388C102.391 302.277 102.389 302.172 102.378 302.071C102.254 300.232 102.139 298.39 102.043 296.541C102.04 296.532 102.04 296.532 102.046 296.519C101.33 282.443 101.782 268.182 104.384 254.444C104.462 254.031 104.537 253.608 104.635 253.189C105.842 247.003 107.553 240.926 109.75 235.018C110.964 231.788 112.34 228.62 113.874 225.529C117.853 217.548 123.062 210.243 129.311 203.881C141.769 191.2 158.145 182.646 175.691 182.376C176.14 182.37 176.58 182.366 177.032 182.369Z" fill="#F0F0F0"/>
<path d="M177.107 182.929C157.628 193.685 142.032 210.305 132.536 230.429C130.415 234.725 128.984 239.329 128.296 244.07C127.776 248.71 128.507 253.406 130.415 257.668C132.114 261.678 134.316 265.582 135.011 269.935C135.333 272.169 135.18 274.445 134.561 276.615C133.942 278.785 132.871 280.8 131.419 282.527C127.912 286.925 123.034 289.8 118.167 292.447C112.762 295.385 107.102 298.351 103.443 303.477C103 304.099 102.062 303.374 102.505 302.754C108.87 293.835 120.49 291.579 128.227 284.249C131.837 280.829 134.438 276.301 133.974 271.189C133.568 266.72 131.301 262.691 129.545 258.646C127.624 254.515 126.742 249.977 126.979 245.427C127.423 240.666 128.674 236.015 130.678 231.674C135.035 221.828 140.913 212.728 148.096 204.708C156.244 195.509 165.905 187.771 176.662 181.831C177.328 181.463 177.769 182.564 177.107 182.929Z" fill="#3F80FE"/>
<path d="M135.212 223.769C132.052 221.718 129.724 218.61 128.644 215C127.564 211.39 127.802 207.515 129.316 204.064C129.625 203.367 130.723 203.814 130.414 204.512C128.998 207.723 128.776 211.333 129.789 214.692C130.802 218.051 132.982 220.938 135.936 222.831C136.577 223.243 135.85 224.179 135.212 223.769Z" fill="#3F80FE"/>
<path d="M129.286 255.748C136.833 254.213 143.525 249.89 148.026 243.641C148.472 243.021 149.41 243.745 148.965 244.364C144.268 250.858 137.296 255.343 129.438 256.923C128.689 257.073 128.541 255.897 129.286 255.748Z" fill="#3F80FE"/>
<path d="M266.367 303.326C266.353 301.09 265.547 298.93 264.092 297.231C262.638 295.532 260.629 294.403 258.421 294.045L122.607 271.742C121.304 271.527 119.971 271.586 118.693 271.916L86.8643 280.146L68.6019 284.874L34.8992 293.586C32.8647 294.114 31.0631 295.303 29.7769 296.966C28.4906 298.628 27.7925 300.671 27.7919 302.773V445.087C27.802 447.256 28.5517 449.358 29.9172 451.044C31.2827 452.73 33.1823 453.9 35.3025 454.36L173.639 452.794C174.289 452.934 174.951 453.002 175.616 452.999C176.583 453.001 177.546 452.855 178.47 452.565L260.659 454.61C262.598 454.005 264.291 452.79 265.486 451.147C266.681 449.503 267.314 447.518 267.292 445.486L266.367 303.326Z" fill="#3F80FE"/>
<path d="M266.367 303.326C266.353 301.09 265.547 298.93 264.092 297.231C262.638 295.532 260.629 294.403 258.421 294.045L122.607 271.742C121.304 271.527 119.971 271.586 118.693 271.916L86.8643 280.146L68.6019 284.874L34.8992 293.586C32.8647 294.114 31.0631 295.303 29.7769 296.966C28.4906 298.628 27.7925 300.671 27.7919 302.773V445.087C27.802 447.256 28.5517 449.358 29.9172 451.044C31.2827 452.73 33.1823 453.9 35.3025 454.36L173.639 452.794C174.289 452.934 174.951 453.002 175.616 452.999C176.583 453.001 177.546 452.855 178.47 452.565L260.659 454.61C262.598 454.005 264.291 452.79 265.486 451.147C266.681 449.503 267.314 447.518 267.292 445.486L266.367 303.326ZM259.947 452.349L177.758 454.304C176.585 454.669 175.339 454.729 174.137 454.478L35.7927 452.044C34.2031 451.698 32.7791 450.819 31.7558 449.555C30.7324 448.29 30.1708 446.714 30.1637 445.087V302.773C30.1647 301.316 30.6124 299.894 31.4465 298.7C32.2805 297.505 33.4608 296.595 34.8281 296.092C35.0453 296.011 35.267 295.942 35.4922 295.887L71.1476 286.668L92.2325 281.213L119.286 274.217C119.866 274.062 120.465 273.985 121.065 273.987C121.452 273.987 121.838 274.019 122.219 274.082L258.034 296.385C259.127 296.564 260.163 296.995 261.06 297.644C261.958 298.293 262.692 299.142 263.204 300.124C263.717 301.12 263.988 302.222 263.995 303.342L264.92 445.502C264.937 447.026 264.463 448.515 263.567 449.749C262.671 450.982 261.402 451.894 259.947 452.349Z" fill="#3F3D56"/>
<path d="M263.204 300.124C263.112 300.185 263.011 300.23 262.904 300.259L222.956 311.058L210.52 314.418L175.149 323.976C175.048 324.001 174.945 324.014 174.841 324.016C174.769 324.014 174.698 324.009 174.627 324L32.0057 297.997L31.5314 297.91C31.2224 297.852 30.949 297.674 30.7709 297.415C30.5928 297.156 30.5244 296.837 30.5809 296.528C30.6373 296.219 30.8138 295.944 31.072 295.765C31.3301 295.586 31.6488 295.516 31.9583 295.57L34.8282 296.092L174.793 321.612L205.278 313.374L222.331 308.765L261.663 298.132L262.287 297.966C262.557 297.895 262.844 297.921 263.097 298.039C263.349 298.158 263.553 298.361 263.671 298.614C263.701 298.675 263.725 298.738 263.742 298.804C263.807 299.052 263.79 299.315 263.693 299.553C263.596 299.792 263.425 299.992 263.204 300.124Z" fill="#3F3D56"/>
<path d="M176.027 453.276C175.376 453.276 174.847 452.753 174.841 456.101L173.655 326.841C173.649 322.186 174.175 321.65 174.83 321.644H174.841C175.491 321.644 176.02 322.167 176.027 326.819L177.212 456.08C177.219 452.734 176.692 453.27 176.037 453.276H176.027Z" fill="#3F3D56"/>
<path d="M223.292 454.776L210.52 454.911L205.278 313.374L71.535 286.763C71.404 286.74 71.2746 286.708 71.1477 286.668C70.1203 286.376 69.2227 285.743 68.602 284.874L86.8644 280.146L92.2325 281.213L219.137 306.457C219.805 306.589 220.435 306.863 220.987 307.262C221.538 307.66 221.997 308.173 222.331 308.765C222.726 309.453 223.284 453.954 223.292 454.776Z" fill="#3F3D56"/>
<path d="M71.122 293.489C71.122 312.991 55.3128 328.8 35.811 328.8C16.3093 328.8 0.5 312.991 0.5 293.489C0.5 273.987 16.3093 258.178 35.811 258.178C55.3128 258.178 71.122 273.987 71.122 293.489Z" fill="#3F80FE" stroke="#3F3D56"/>
<path d="M30.9256 312.127C30.3072 312.127 29.6973 311.983 29.1442 311.706C28.5911 311.43 28.1101 311.028 27.7392 310.533L17.9694 297.507C17.3355 296.661 17.0634 295.599 17.2128 294.553C17.3623 293.507 17.921 292.564 18.7662 291.93C19.6114 291.296 20.6738 291.024 21.7196 291.173C22.7655 291.323 23.7091 291.882 24.343 292.727L30.7347 301.248L47.151 276.624C47.4404 276.187 47.8132 275.811 48.2481 275.519C48.6829 275.226 49.1713 275.022 49.6851 274.919C50.1989 274.815 50.7281 274.814 51.2424 274.915C51.7567 275.016 52.246 275.218 52.6821 275.509C53.1182 275.8 53.4927 276.174 53.784 276.61C54.0754 277.045 54.2778 277.534 54.3798 278.048C54.4818 278.563 54.4813 279.092 54.3784 279.606C54.2755 280.12 54.0721 280.608 53.78 281.044L34.2405 310.353C33.887 310.883 33.4116 311.321 32.8541 311.629C32.2966 311.937 31.6733 312.108 31.0365 312.126C30.9996 312.126 30.9626 312.127 30.9256 312.127Z" fill="#2F2E41"/>
<path d="M68.9867 385.013C68.8776 385.035 68.7664 385.046 68.6551 385.044L36.8791 384.509C36.4818 384.501 36.1037 384.337 35.8277 384.051C35.5518 383.765 35.4005 383.381 35.4071 382.984C35.4137 382.587 35.5776 382.208 35.8629 381.932C36.1482 381.655 36.5316 381.503 36.9289 381.509L68.7049 382.044C69.0738 382.05 69.4274 382.192 69.6983 382.443C69.9691 382.693 70.1381 383.035 70.173 383.402C70.2078 383.77 70.1062 384.137 69.8873 384.434C69.6685 384.731 69.3479 384.937 68.9867 385.013Z" fill="#E6E6E6"/>
</svg>
