<svg width="406" height="364" viewBox="0 0 406 364" fill="none" xmlns="http://www.w3.org/2000/svg">
<path d="M155.5 212.508H59.519L58.5015 182.998C58.4574 181.718 58.6911 180.445 59.1865 179.264C59.6818 178.084 60.427 177.025 61.3708 176.16C62.3146 175.296 63.4346 174.646 64.6536 174.255C65.8727 173.865 67.1618 173.743 68.4324 173.899L124.287 180.738H124.294C132.574 180.761 140.508 184.064 146.358 189.926C152.207 195.787 155.495 203.728 155.5 212.008V212.508Z" fill="#3F80FE"/>
<path d="M112.721 107.829H45.7789C44.8886 107.829 44.007 108.004 43.1845 108.345C42.3619 108.685 41.6145 109.185 40.985 109.814C40.3555 110.444 39.8561 111.191 39.5155 112.014C39.1749 112.836 38.9998 113.718 39 114.608V181.55C38.9998 182.44 39.1749 183.322 39.5155 184.145C39.8561 184.967 40.3555 185.715 40.985 186.344C41.6145 186.974 42.3619 187.473 43.1845 187.814C44.007 188.154 44.8886 188.329 45.7789 188.329H112.721C113.611 188.329 114.493 188.154 115.316 187.814C116.138 187.473 116.886 186.974 117.515 186.344C118.145 185.715 118.644 184.967 118.984 184.145C119.325 183.322 119.5 182.44 119.5 181.55V114.608C119.5 113.718 119.325 112.836 118.984 112.014C118.644 111.191 118.145 110.444 117.515 109.814C116.886 109.185 116.138 108.685 115.316 108.345C114.493 108.004 113.611 107.829 112.721 107.829Z" fill="#CCCCCC"/>
<path d="M97.6447 157.886L66.0384 164.041C64.1636 164.404 62.2214 164.008 60.6379 162.941C59.0544 161.874 57.9589 160.222 57.5918 158.348L55.1622 145.872C54.7993 143.997 55.1949 142.055 56.2622 140.471C57.3294 138.888 58.9813 137.792 60.8553 137.425L92.4616 131.27C94.3364 130.907 96.2786 131.303 97.8621 132.37C99.4456 133.437 100.541 135.089 100.908 136.963L103.338 149.439C103.701 151.314 103.305 153.256 102.238 154.84C101.17 156.423 99.5187 157.519 97.6447 157.886Z" fill="#3F3D56"/>
<path d="M91.3212 143.146L67.2006 147.844C66.7594 147.929 66.3022 147.837 65.9294 147.585C65.5567 147.334 65.2991 146.945 65.2131 146.504C65.1272 146.063 65.2201 145.606 65.4713 145.233C65.7225 144.86 66.1115 144.602 66.5527 144.517L90.6733 139.819C91.1145 139.733 91.5717 139.826 91.9445 140.078C92.3172 140.329 92.5748 140.718 92.6607 141.159C92.7466 141.6 92.6538 142.057 92.4026 142.43C92.1514 142.803 91.7624 143.06 91.3212 143.146Z" fill="white"/>
<path d="M86.6328 150.102L74.1567 152.532C73.7155 152.618 73.2582 152.525 72.8855 152.274C72.5128 152.023 72.2551 151.634 72.1692 151.192C72.0833 150.751 72.1762 150.294 72.4274 149.921C72.6786 149.549 73.0676 149.291 73.5088 149.205L85.9849 146.775C86.2034 146.733 86.428 146.734 86.6462 146.778C86.8643 146.822 87.0715 146.909 87.2561 147.034C87.4406 147.158 87.5989 147.317 87.7218 147.503C87.8447 147.689 87.9298 147.896 87.9724 148.115C88.0149 148.333 88.014 148.558 87.9697 148.776C87.9254 148.994 87.8386 149.202 87.7142 149.386C87.5898 149.571 87.4303 149.729 87.2447 149.852C87.0592 149.975 86.8512 150.06 86.6328 150.102Z" fill="white"/>
<path d="M119.5 114.608V123.505H39V114.608C38.9998 113.718 39.1749 112.836 39.5155 112.014C39.8561 111.191 40.3555 110.444 40.985 109.814C41.6145 109.185 42.3619 108.685 43.1845 108.345C44.007 108.004 44.8886 107.829 45.7789 107.829H112.721C113.611 107.829 114.493 108.004 115.316 108.345C116.138 108.685 116.885 109.185 117.515 109.814C118.145 110.444 118.644 111.191 118.984 112.014C119.325 112.836 119.5 113.718 119.5 114.608Z" fill="#B3B3B3"/>
<path d="M280.251 126.292C279.786 124.791 278.998 123.411 277.942 122.249C276.886 121.086 275.589 120.169 274.14 119.562C272.691 118.955 271.128 118.673 269.558 118.736C267.989 118.799 266.453 119.206 265.057 119.927L172.961 86.884L168.905 109.891L260.708 135.137C262.075 137.4 264.224 139.084 266.749 139.869C269.274 140.653 271.999 140.485 274.408 139.394C276.817 138.304 278.742 136.368 279.819 133.953C280.896 131.538 281.05 128.812 280.251 126.292Z" fill="#FFB8B8"/>
<path opacity="0.2" d="M280.251 126.292C279.786 124.791 278.998 123.411 277.942 122.249C276.886 121.086 275.589 120.169 274.14 119.562C272.691 118.955 271.128 118.673 269.558 118.736C267.989 118.799 266.453 119.206 265.057 119.927L172.961 86.884L168.905 109.891L260.708 135.137C262.075 137.4 264.224 139.084 266.749 139.869C269.274 140.653 271.999 140.485 274.408 139.394C276.817 138.304 278.742 136.368 279.819 133.953C280.896 131.538 281.05 128.812 280.251 126.292Z" fill="black"/>
<path d="M189.308 91.0764L180.611 113.797C180.363 114.443 179.979 115.029 179.485 115.513C178.991 115.998 178.398 116.371 177.747 116.606C177.096 116.84 176.402 116.932 175.712 116.875C175.022 116.817 174.353 116.612 173.75 116.272L152.614 104.376C149.314 103.091 146.658 100.55 145.229 97.3101C143.799 94.07 143.713 90.3954 144.989 87.0918C146.264 83.7882 148.798 81.1253 152.034 79.6867C155.27 78.2481 158.944 78.1514 162.251 79.4176L185.853 84.6523C186.529 84.8024 187.165 85.0963 187.716 85.5141C188.268 85.9319 188.724 86.4638 189.051 87.0734C189.379 87.6831 189.572 88.3562 189.616 89.047C189.66 89.7378 189.555 90.4299 189.308 91.0764Z" fill="#3F80FE"/>
<path d="M287.5 147.329L254.5 162.329L258.833 178.64C267.199 210.138 269.42 242.952 265.372 275.29L289.5 280.329L309.5 229.329L302.5 171.329L287.5 147.329Z" fill="#3F80FE"/>
<path d="M352.25 222.829C330.568 222.829 312.898 238.591 312.041 258.329H392.459C391.602 238.591 373.932 222.829 352.25 222.829Z" fill="#3F3D56"/>
<path d="M335.372 226.231C334.243 137.132 283.5 145.329 283.5 145.329C283.5 145.329 284.449 173.062 284.905 173.925C317.241 235.104 263.875 306.829 195.945 293.634C194.664 293.385 193.434 293.133 192.254 292.877C183.647 291.08 176.047 286.071 171.001 278.871C165.955 271.67 163.842 262.817 165.091 254.114C171.782 200.378 138.5 201.329 138.5 201.329H89.8335L64.5601 178.583C63.668 177.78 62.5928 177.208 61.4285 176.917C60.2642 176.626 59.0463 176.624 57.8812 176.912C56.7161 177.2 55.6394 177.77 54.7451 178.57C53.8509 179.371 53.1664 180.378 52.7514 181.504L49.5 190.329C49.5 190.329 1.49998 195.329 5.49998 242.329H20.3398C20.304 243.665 20.3575 245.001 20.5 246.329L131.251 245.429C137.743 245.376 143.473 250.636 143.5 257.128C143.507 258.709 143.194 260.275 142.582 261.732C141.97 263.189 141.07 264.507 139.936 265.609C138.802 266.71 137.458 267.571 135.984 268.141C134.509 268.71 132.935 268.977 131.355 268.924L113.5 268.329C108 292.829 121.5 309.329 136.375 319.704C150.38 329.331 166.999 334.435 183.993 334.329H232.5C295.5 334.329 306.5 281.329 306.5 281.329C339.5 267.329 335.372 226.231 335.372 226.231Z" fill="#3F3D56"/>
<path d="M405 307.079C405 337.869 380.04 362.829 349.25 362.829C318.46 362.829 293.5 337.869 293.5 307.079C293.5 276.289 318.46 251.329 349.25 251.329C380.04 251.329 405 276.289 405 307.079Z" fill="#3F3D56" stroke="#23272E"/>
<path d="M349.25 320.866C356.864 320.866 363.037 314.693 363.037 307.079C363.037 299.465 356.864 293.292 349.25 293.292C341.636 293.292 335.463 299.465 335.463 307.079C335.463 314.693 341.636 320.866 349.25 320.866Z" fill="white"/>
<path d="M129.5 298.579C129.5 334.063 100.734 362.829 65.25 362.829C29.7657 362.829 1 334.063 1 298.579C1 263.095 29.7657 234.329 65.25 234.329C100.734 234.329 129.5 263.095 129.5 298.579Z" fill="#3F3D56" stroke="#23272E"/>
<path d="M65.25 314.449C74.0148 314.449 81.1201 307.344 81.1201 298.579C81.1201 289.814 74.0148 282.709 65.25 282.709C56.4852 282.709 49.3799 289.814 49.3799 298.579C49.3799 307.344 56.4852 314.449 65.25 314.449Z" fill="white"/>
<path d="M254.594 166.761L242.72 134.512C242.101 132.831 241.82 131.045 241.891 129.255C241.963 127.465 242.386 125.707 243.137 124.081C243.888 122.455 244.952 120.993 246.268 119.778C247.584 118.563 249.126 117.62 250.807 117.001L284.847 104.47C287.804 103.381 290.947 102.885 294.096 103.01C297.245 103.136 300.339 103.881 303.2 105.202C306.061 106.523 308.634 108.394 310.772 110.71C312.909 113.025 314.57 115.739 315.659 118.697C316.641 121.351 317.143 124.159 317.14 126.989C317.127 130.583 316.314 134.128 314.759 137.368C313.205 140.608 310.948 143.461 308.152 145.719C306.133 147.339 303.863 148.619 301.432 149.508L254.594 166.761Z" fill="#3F3D56"/>
<path d="M316.64 126.989C316.637 130.509 315.845 133.984 314.322 137.158C312.799 140.332 310.584 143.124 307.84 145.329C303.629 144.218 299.711 142.204 296.358 139.426C293.004 136.648 290.296 133.173 288.421 129.243C286.547 125.313 285.55 121.021 285.502 116.667C285.453 112.313 286.354 108 288.14 104.029C291.57 103.283 295.124 103.315 298.54 104.122C301.956 104.929 305.148 106.491 307.881 108.693C310.615 110.895 312.82 113.682 314.336 116.848C315.851 120.014 316.639 123.479 316.64 126.989Z" fill="#3F80FE"/>
<path d="M14 248.829C21.732 248.829 28 241.218 28 231.829C28 222.44 21.732 214.829 14 214.829C6.26801 214.829 0 222.44 0 231.829C0 241.218 6.26801 248.829 14 248.829Z" fill="#3F80FE"/>
<path d="M199.061 292.005H211.321L217.154 260.208L199.059 260.209L199.061 292.005Z" fill="#FFB8B8"/>
<path d="M195.934 288.003L220.078 288.001H220.079C222.099 288.001 224.1 288.399 225.967 289.173C227.834 289.946 229.53 291.079 230.959 292.508C232.387 293.937 233.521 295.633 234.294 297.5C235.067 299.366 235.465 301.367 235.465 303.388V303.888L195.935 303.889L195.934 288.003Z" fill="#2F2E41"/>
<path d="M213.292 278.955C213.149 278.955 213.005 278.948 212.861 278.934L195.895 277.699C195.209 277.635 194.546 277.415 193.959 277.055C193.371 276.694 192.874 276.204 192.506 275.622C192.138 275.039 191.909 274.38 191.836 273.695C191.763 273.009 191.848 272.316 192.086 271.669L214.792 220.655C214.954 220.2 215.021 219.717 214.987 219.235C214.953 218.753 214.82 218.284 214.596 217.856C214.372 217.423 214.06 217.043 213.679 216.739C213.297 216.436 212.856 216.217 212.385 216.096C201.707 213.305 174.313 205.874 150.598 197.178C140.438 193.453 134.039 188.069 131.579 181.176C128.336 172.089 133.134 163.802 133.34 163.455L133.501 163.182L155.816 165.21L180.007 167.268L233.02 195.696C237.462 198.098 240.836 202.085 242.471 206.864C244.105 211.642 243.879 216.861 241.839 221.48L217.398 276.288C217.044 277.081 216.468 277.756 215.739 278.229C215.011 278.702 214.16 278.954 213.292 278.955Z" fill="#2F2E41"/>
<path d="M159.696 64.2812C173.26 64.2812 184.257 53.2849 184.257 39.7202C184.257 26.1555 173.26 15.1592 159.696 15.1592C146.131 15.1592 135.135 26.1555 135.135 39.7202C135.135 53.2849 146.131 64.2812 159.696 64.2812Z" fill="#FFB8B8"/>
<path d="M192.061 295.005H204.321L210.154 263.208L192.059 263.209L192.061 295.005Z" fill="#FFB8B8"/>
<path d="M188.934 291.003L213.078 291.001H213.079C215.099 291.001 217.1 291.399 218.967 292.173C220.834 292.946 222.53 294.079 223.959 295.508C225.387 296.937 226.521 298.633 227.294 300.5C228.067 302.366 228.465 304.367 228.465 306.388V306.888L188.935 306.889L188.934 291.003Z" fill="#2F2E41"/>
<path d="M206.292 281.955C206.149 281.955 206.005 281.948 205.861 281.934L188.895 280.699C188.209 280.635 187.546 280.415 186.959 280.055C186.371 279.694 185.874 279.204 185.506 278.622C185.138 278.039 184.909 277.38 184.836 276.695C184.763 276.009 184.848 275.316 185.086 274.669L207.792 223.655C207.954 223.2 208.021 222.717 207.987 222.235C207.953 221.753 207.82 221.284 207.596 220.856C207.372 220.423 207.06 220.043 206.679 219.739C206.297 219.436 205.856 219.217 205.385 219.096C194.707 216.305 167.313 208.874 143.598 200.178C133.438 196.453 127.039 191.069 124.579 184.176C121.336 175.089 126.134 166.802 126.34 166.455L126.501 166.182L148.816 168.21L173.007 170.268L226.02 198.696C230.462 201.098 233.836 205.085 235.471 209.864C237.105 214.642 236.879 219.861 234.839 224.48L210.398 279.288C210.044 280.081 209.468 280.756 208.739 281.229C208.011 281.702 207.16 281.954 206.292 281.955Z" fill="#2F2E41"/>
<path d="M167.27 78.2085L141.27 69.2085C141.27 69.2085 124.948 81.7485 132.789 112.857C136.883 128.91 135.69 145.856 129.389 161.177C128.631 163.073 127.756 164.92 126.77 166.708C126.77 166.708 155.77 201.708 182.77 175.708L172.27 125.208C172.27 125.208 188.77 91.7085 167.27 78.2085Z" fill="#3F80FE"/>
<path d="M162.745 65.1165C159.249 59.8842 156.491 52.629 160.339 47.6506C164.138 42.7365 171.632 43.4605 177.45 41.286C185.554 38.2573 190.254 28.7367 188.788 20.2103C187.322 11.684 180.478 4.61591 172.324 1.72388C164.17 -1.16815 154.976 -0.227596 146.991 3.10275C137.162 7.20245 128.73 15.133 125.194 25.179C121.658 35.225 123.549 47.2871 130.883 55.0086C138.747 63.287 151.089 65.4932 162.506 65.3593" fill="#2F2E41"/>
<path d="M139.898 20.4838C135.493 24.0697 128.773 22.477 124.045 19.3299C119.316 16.1829 115.479 11.7017 110.363 9.23427C101.344 4.88432 90.4397 7.77604 81.6618 12.5944C72.8839 17.4127 65.1026 24.0694 55.8305 27.8505C46.5585 31.6317 34.7266 31.8186 27.7057 24.6789C25.9779 29.6847 25.8367 35.1018 27.3012 40.1908C28.7658 45.2799 31.7648 49.7931 35.8891 53.1148C40.0134 56.4365 45.0622 58.4048 50.3464 58.7512C55.6307 59.0976 60.8932 57.8052 65.4158 55.0504C75.5752 48.862 81.1869 35.8867 92.5817 32.4711C98.8872 30.581 105.658 32.1033 112.031 33.7521C118.404 35.4009 125.049 37.1825 131.48 35.7789C137.911 34.3752 143.927 28.5957 143.109 22.0641L139.898 20.4838Z" fill="#2F2E41"/>
<path d="M279.029 125.291C278.382 123.86 277.43 122.587 276.239 121.564C275.048 120.54 273.647 119.79 272.134 119.367C270.622 118.944 269.035 118.857 267.486 119.113C265.936 119.369 264.462 119.962 263.166 120.85L167.696 99.4224L166.51 122.754L260.727 136.48C262.362 138.558 264.703 139.963 267.305 140.43C269.908 140.898 272.591 140.394 274.847 139.015C277.103 137.636 278.775 135.477 279.546 132.947C280.316 130.418 280.132 127.694 279.029 125.291Z" fill="#FFB8B8"/>
<path d="M184.435 101.566L178.608 125.186C178.443 125.858 178.134 126.486 177.703 127.028C177.273 127.57 176.73 128.013 176.113 128.326C175.496 128.64 174.819 128.817 174.127 128.845C173.436 128.873 172.746 128.751 172.105 128.489L149.663 119.291C146.227 118.425 143.276 116.232 141.456 113.192C139.635 110.153 139.095 106.515 139.954 103.078C140.813 99.6402 143 96.6839 146.036 94.8573C149.072 93.0307 152.708 92.483 156.147 93.3344L180.215 95.617C180.904 95.6825 181.571 95.8958 182.17 96.2424C182.769 96.5889 183.287 97.0605 183.687 97.625C184.088 98.1896 184.362 98.8338 184.491 99.5139C184.62 100.194 184.601 100.894 184.435 101.566Z" fill="#3F80FE"/>
<path d="M268 143.829C271.866 143.829 275 140.695 275 136.829C275 132.963 271.866 129.829 268 129.829C264.134 129.829 261 132.963 261 136.829C261 140.695 264.134 143.829 268 143.829Z" fill="#3F80FE"/>
</svg>
